<?xml version="1.0" encoding="UTF-8"?>
<svg xmlns="http://www.w3.org/2000/svg" xmlns:xlink="http://www.w3.org/1999/xlink" viewBox="0 0 400 400" width="400px" height="400px">
<g id="surface107325245">
<path style=" stroke:none;fill-rule:nonzero;fill:rgb(100%,100%,100%);fill-opacity:1;" d="M 328 210 C 328 279.585938 271.585938 336 202 336 C 132.414062 336 76 279.585938 76 210 C 76 140.414062 132.414062 84 202 84 C 271.585938 84 328 140.414062 328 210 Z M 328 210 "/>
<path style=" stroke:none;fill-rule:nonzero;fill:rgb(0%,0%,0%);fill-opacity:1;" d="M 202 340 C 130.320312 340 72 281.679688 72 210 C 72 138.320312 130.320312 80 202 80 C 273.683594 80 332 138.320312 332 210 C 332 281.679688 273.683594 340 202 340 Z M 202 88 C 134.726562 88 80 142.726562 80 210 C 80 277.273438 134.726562 332 202 332 C 269.269531 332 324 277.273438 324 210 C 324 142.726562 269.269531 88 202 88 Z M 202 88 "/>
<path style=" stroke:none;fill-rule:nonzero;fill:rgb(22.745098%,51.372552%,75.686276%);fill-opacity:1;" d="M 110.714844 156.128906 C 101.378906 171.921875 96 190.328125 96 210 C 96 268.542969 143.457031 316 202 316 C 222.0625 316 240.820312 310.425781 256.816406 300.738281 C 239.828125 198.167969 163.199219 166.011719 110.714844 156.128906 Z M 110.714844 156.128906 "/>
<path style=" stroke:none;fill-rule:nonzero;fill:rgb(18.82353%,43.921569%,71.764708%);fill-opacity:1;" d="M 308 210 C 308 268.542969 260.542969 316 202 316 C 143.457031 316 96 268.542969 96 210 C 96 151.457031 143.457031 104 202 104 C 260.542969 104 308 151.457031 308 210 Z M 308 210 "/>
<path style=" stroke:none;fill-rule:nonzero;fill:rgb(0%,0%,0%);fill-opacity:1;" d="M 202 320 C 141.34375 320 92 270.65625 92 210 C 92 149.34375 141.34375 100 202 100 C 262.652344 100 312 149.34375 312 210 C 312 270.65625 262.652344 320 202 320 Z M 202 108 C 145.757812 108 100 153.757812 100 210 C 100 266.242188 145.757812 312 202 312 C 258.242188 312 304 266.242188 304 210 C 304 153.757812 258.242188 108 202 108 Z M 202 108 "/>
<path style=" stroke:none;fill-rule:nonzero;fill:rgb(25.098041%,65.098041%,86.666667%);fill-opacity:1;" d="M 188 224 C 188 224 240 256 228 296 L 256 296 C 256 296 260 248 188 224 Z M 188 224 "/>
<path style=" stroke:none;fill-rule:nonzero;fill:rgb(19.215687%,76.862746%,95.294118%);fill-opacity:1;" d="M 196 172 C 196 172 280 240 240 296 C 240 296 284 244 252 168 C 252 196 248 212 248 212 C 248 212 240 192 196 172 Z M 196 172 "/>
<path style=" stroke:none;fill-rule:nonzero;fill:rgb(19.215687%,76.862746%,95.294118%);fill-opacity:1;" d="M 164 132 C 164 132 232 128 288 188 C 252 124 192 112 156 112 C 160 120 164 132 164 132 Z M 164 132 "/>
<path style=" stroke:none;fill-rule:nonzero;fill:rgb(100%,100%,100%);fill-opacity:1;" d="M 176 288 L 176 72 L 88 72 L 112 104 L 112 300 L 92 336 L 288 336 L 320 288 Z M 176 288 "/>
<path style=" stroke:none;fill-rule:nonzero;fill:rgb(0%,0%,0%);fill-opacity:1;" d="M 288 340 L 92 340 C 90.585938 340 89.273438 339.246094 88.550781 338.027344 C 87.832031 336.804688 87.8125 335.296875 88.503906 334.054688 L 108 298.964844 L 108 105.332031 L 84.800781 74.398438 C 83.886719 73.1875 83.742188 71.566406 84.421875 70.210938 C 85.097656 68.855469 86.484375 68 88 68 L 176 68 C 178.207031 68 180 69.792969 180 72 L 180 284 L 320 284 C 321.476562 284 322.832031 284.8125 323.527344 286.113281 C 324.222656 287.410156 324.148438 288.992188 323.328125 290.214844 L 291.328125 338.214844 C 290.585938 339.332031 289.335938 340 288 340 Z M 98.800781 332 L 285.859375 332 L 312.527344 292 L 176 292 C 173.792969 292 172 290.207031 172 288 L 172 76 L 96 76 L 115.199219 101.601562 C 115.71875 102.292969 116 103.136719 116 104 L 116 300 C 116 300.679688 115.828125 301.347656 115.496094 301.945312 Z M 98.800781 332 "/>
<path style=" stroke:none;fill-rule:nonzero;fill:rgb(92.156863%,63.529414%,44.705883%);fill-opacity:1;" d="M 160 300 L 160 86.128906 L 117.488281 86.128906 L 124 98.332031 L 124 304 L 120 320 L 276 320 L 288.109375 300 Z M 160 300 "/>
<path style=" stroke:none;fill-rule:nonzero;fill:rgb(0%,0%,0%);fill-opacity:1;" d="M 126 180 C 124.894531 180 124 179.105469 124 178 L 124 146 C 124 144.894531 124.894531 144 126 144 C 127.105469 144 128 144.894531 128 146 L 128 178 C 128 179.105469 127.105469 180 126 180 Z M 126 180 "/>
<path style=" stroke:none;fill-rule:nonzero;fill:rgb(0%,0%,0%);fill-opacity:1;" d="M 186 304 L 162 304 C 160.894531 304 160 303.105469 160 302 L 160 88 L 121.40625 88 L 127.746094 99.355469 C 127.910156 99.652344 128 99.988281 128 100.332031 L 128 134 C 128 135.105469 127.105469 136 126 136 C 124.894531 136 124 135.105469 124 134 L 124 100.847656 L 116.253906 86.972656 C 115.90625 86.351562 115.914062 85.597656 116.273438 84.984375 C 116.636719 84.375 117.292969 84 118 84 L 162 84 C 163.105469 84 164 84.894531 164 86 L 164 300 L 186 300 C 187.105469 300 188 300.894531 188 302 C 188 303.105469 187.105469 304 186 304 Z M 186 304 "/>
<path style=" stroke:none;fill-rule:nonzero;fill:rgb(0%,0%,0%);fill-opacity:1;" d="M 230 304 L 198 304 C 196.894531 304 196 303.105469 196 302 C 196 300.894531 196.894531 300 198 300 L 230 300 C 231.105469 300 232 300.894531 232 302 C 232 303.105469 231.105469 304 230 304 Z M 230 304 "/>
<path style=" stroke:none;fill-rule:nonzero;fill:rgb(0%,0%,0%);fill-opacity:1;" d="M 275.414062 324 L 118 324 C 117.316406 324 116.675781 323.648438 116.3125 323.070312 C 115.945312 322.492188 115.898438 321.765625 116.195312 321.148438 L 124 304.660156 L 124 194 C 124 192.894531 124.894531 192 126 192 C 127.105469 192 128 192.894531 128 194 L 128 305.109375 C 128 305.402344 127.933594 305.695312 127.808594 305.964844 L 121.160156 320 L 274.316406 320 L 284.496094 304 L 250 304 C 248.894531 304 248 303.105469 248 302 C 248 300.894531 248.894531 300 250 300 L 288.140625 300 C 288.871094 300 289.542969 300.398438 289.890625 301.035156 C 290.242188 301.675781 290.214844 302.457031 289.824219 303.070312 L 277.097656 323.070312 C 276.734375 323.652344 276.097656 324 275.414062 324 Z M 275.414062 324 "/>
<path style=" stroke:none;fill-rule:nonzero;fill:rgb(0%,0%,0%);fill-opacity:1;" d="M 251.148438 283.359375 C 250.820312 283.359375 250.488281 283.28125 250.179688 283.109375 C 249.214844 282.570312 248.863281 281.355469 249.398438 280.386719 C 256.753906 267.101562 260.421875 252.015625 261.957031 244.207031 C 262.164062 243.121094 263.207031 242.410156 264.304688 242.628906 C 265.386719 242.839844 266.09375 243.890625 265.878906 244.976562 C 264.304688 253.015625 260.519531 268.558594 252.902344 282.324219 C 252.535156 282.988281 251.851562 283.359375 251.148438 283.359375 Z M 251.148438 283.359375 "/>
<path style=" stroke:none;fill-rule:nonzero;fill:rgb(0%,0%,0%);fill-opacity:1;" d="M 244.253906 155.699219 C 243.859375 155.699219 243.472656 155.589844 243.128906 155.351562 C 236.855469 151.085938 228.238281 147.085938 217.527344 143.472656 C 216.480469 143.121094 215.921875 141.984375 216.277344 140.941406 C 216.628906 139.890625 217.753906 139.332031 218.8125 139.683594 C 229.871094 143.410156 238.808594 147.570312 245.382812 152.046875 C 246.300781 152.667969 246.53125 153.910156 245.910156 154.824219 C 245.519531 155.394531 244.890625 155.699219 244.253906 155.699219 Z M 244.253906 155.699219 "/>
<path style=" stroke:none;fill-rule:nonzero;fill:rgb(0%,0%,0%);fill-opacity:1;" d="M 208.574219 140.613281 C 208.394531 140.613281 208.210938 140.589844 208.03125 140.535156 C 200.433594 138.386719 194.898438 137.289062 194.847656 137.28125 C 193.765625 137.0625 193.058594 136.011719 193.277344 134.929688 C 193.488281 133.84375 194.550781 133.144531 195.625 133.351562 C 195.855469 133.398438 201.351562 134.492188 209.121094 136.683594 C 210.183594 136.984375 210.804688 138.09375 210.503906 139.152344 C 210.253906 140.035156 209.449219 140.613281 208.574219 140.613281 Z M 208.574219 140.613281 "/>
<path style=" stroke:none;fill-rule:nonzero;fill:rgb(0%,0%,0%);fill-opacity:1;" d="M 250.632812 283.871094 C 249.640625 283.871094 248.777344 283.128906 248.652344 282.121094 C 245.730469 258.472656 220.476562 242.484375 217.605469 240.738281 C 216.660156 240.164062 216.359375 238.9375 216.9375 237.992188 C 217.511719 237.046875 218.738281 236.753906 219.683594 237.324219 C 222.722656 239.171875 249.46875 256.121094 252.621094 281.632812 C 252.757812 282.726562 251.976562 283.726562 250.878906 283.863281 C 250.796875 283.867188 250.714844 283.871094 250.632812 283.871094 Z M 250.632812 283.871094 "/>
<path style=" stroke:none;fill-rule:nonzero;fill:rgb(0%,0%,0%);fill-opacity:1;" d="M 206.390625 234.449219 C 206.105469 234.449219 205.8125 234.386719 205.535156 234.257812 C 196.367188 229.925781 189.519531 227.941406 189.453125 227.925781 C 188.390625 227.621094 187.777344 226.511719 188.078125 225.449219 C 188.378906 224.386719 189.484375 223.777344 190.550781 224.074219 C 190.84375 224.160156 197.765625 226.160156 207.246094 230.640625 C 208.242188 231.113281 208.671875 232.304688 208.199219 233.304688 C 207.859375 234.023438 207.140625 234.449219 206.390625 234.449219 Z M 206.390625 234.449219 "/>
<path style=" stroke:none;fill-rule:nonzero;fill:rgb(0%,0%,0%);fill-opacity:1;" d="M 247.703125 213.339844 C 247.070312 213.339844 246.460938 213.035156 246.085938 212.511719 C 238.507812 202.023438 224.332031 188.8125 216.71875 184 C 215.789062 183.410156 215.507812 182.171875 216.101562 181.238281 C 216.691406 180.304688 217.9375 180.035156 218.859375 180.617188 C 225.964844 185.109375 238.539062 196.601562 246.707031 206.746094 C 248.125 200.109375 249.339844 191.707031 249.339844 179.9375 C 249.339844 178.832031 250.234375 177.9375 251.339844 177.9375 C 252.445312 177.9375 253.339844 178.832031 253.339844 179.9375 C 253.339844 194.703125 251.472656 204.339844 249.644531 211.816406 C 249.460938 212.570312 248.851562 213.152344 248.085938 213.304688 C 247.957031 213.328125 247.832031 213.339844 247.703125 213.339844 Z M 247.703125 213.339844 "/>
<path style=" stroke:none;fill-rule:nonzero;fill:rgb(0%,0%,0%);fill-opacity:1;" d="M 207.878906 178.445312 C 207.546875 178.445312 207.214844 178.363281 206.90625 178.191406 C 199.980469 174.339844 194.703125 171.878906 194.652344 171.859375 C 193.652344 171.394531 193.214844 170.203125 193.679688 169.203125 C 194.144531 168.203125 195.328125 167.765625 196.335938 168.230469 C 196.554688 168.332031 201.789062 170.769531 208.855469 174.699219 C 209.820312 175.234375 210.167969 176.453125 209.628906 177.421875 C 209.261719 178.070312 208.578125 178.445312 207.878906 178.445312 Z M 207.878906 178.445312 "/>
</g>
</svg>
